# xmcd
#
# Track frame offsets:
#	150
#	16849
#	37133
#	53893
#	72567
#	89132
#	106959
#	120436
#	137933
#	156067
#	170190
#
# Disc length: 2680 seconds
# Revision: 0
# Processed by: cddbd v1.5.2PL0 Copyright (c) Steve Scherf et al.
# Submitted via: dBpowerAMP V12.0
#
DISCID=9f0a760b
DTITLE=Holly Williams - The Highway
DYEAR=2014
DGENRE=Country
TTITLE0=Drinkin'
TTITLE1=Gone Away From Me
TTITLE2=Railroads
TTITLE3=Happy
TTITLE4=The Highway
TTITLE5=Without You
TTITLE6=Let You Go
TTITLE7=Giving Up
TTITLE8=A Good Man
TTITLE9='Till It Runs Dry
TTITLE10=Waiting On June
EXTD=
EXTT0=
EXTT1=
EXTT2=
EXTT3=
EXTT4=
EXTT5=
EXTT6=
EXTT7=
EXTT8=
EXTT9=
EXTT10=
PLAYORDER=
